<?xml version="1.0" encoding="UTF-8"?>
<svg version="1.1" xmlns="http://www.w3.org/2000/svg" width="512" height="512">
<path d="M0 0 C3.15293631 3.80207026 4.33081133 7.71245178 4 12.625 C3.24549614 16.88098781 1.94708771 19.75064689 -1 23 C-5.7065949 25.87625244 -10.54911299 27.56674458 -15.75 29.375 C-27.02960789 33.33550266 -36.64619784 38.55006908 -46 46 C-46.83273437 46.65484375 -47.66546875 47.3096875 -48.5234375 47.984375 C-68.08604036 64.39968213 -78.37563022 88.96473222 -80.61889648 113.96850586 C-81.55223928 127.32719978 -79.77139368 139.88505062 -75.24609375 152.48046875 C-74 156 -74 156 -73.34765625 158.92578125 C-72.60149657 161.69407781 -72.1376246 163.07033436 -70 165 C-66.06705792 165.98552744 -62.29168561 166.34355796 -58.2578125 166.6171875 C-49.70128597 167.23029598 -41.77962935 170.59094893 -34 174 C-33.76925781 172.92363281 -33.53851563 171.84726563 -33.30078125 170.73828125 C-27.29464689 143.50545921 -13.81686284 117.38495504 10.12890625 101.71484375 C21.67527616 94.8184405 32.92400099 89.30721335 46 86 C46.95519531 85.75507813 47.91039062 85.51015625 48.89453125 85.2578125 C74.87680299 79.83090023 103.84020441 85.52311348 126 100 C129.78318999 103.09405873 132.12449029 106.08637908 133.0625 110.9375 C133.36018595 116.84542125 131.50059808 121.3019548 127.625 125.6875 C123.63905245 128.67696066 118.82521053 129.99919786 114.19140625 131.69140625 C104.87038583 135.51336689 97.95944777 142.96596029 93.8125 152.0546875 C90.71799671 159.46364249 90.06773149 167.02058349 91 175 C93.15767385 178.33458685 96.91201603 179.5323296 100.4375 181.125 C101.57058594 181.64320313 102.70367187 182.16140625 103.87109375 182.6953125 C115.76046644 187.65292858 127.47187446 184.56526273 139 180 C144.41347336 177.72216618 149.7852517 175.35365361 155.1315918 172.92260742 C173.41813892 164.62423055 173.41813892 164.62423055 182 167 C186.46782548 169.31665025 188.92582187 171.42958141 191 176 C191.44122928 179.40117041 191.40891335 182.77799948 191.38768005 186.20372009 C191.39575836 187.75961164 191.39575836 187.75961164 191.40399987 189.34693533 C191.41832398 192.82768318 191.41116457 196.30805312 191.40405273 199.78881836 C191.40975395 202.28225511 191.41671724 204.77568926 191.42485046 207.26911926 C191.4409568 213.34184135 191.44287696 219.41441458 191.43763756 225.48714345 C191.43359602 230.42310125 191.43503922 235.35902848 191.44038582 240.29498482 C191.44113424 240.99751679 191.44188266 241.70004875 191.44265376 242.42386957 C191.44418524 243.85106552 191.44572359 245.27826146 191.44726873 246.7054574 C191.46099646 260.08920649 191.45555417 273.47289712 191.44408352 286.85664488 C191.43415074 299.09993286 191.44709203 311.34306973 191.47101771 323.5863344 C191.49540203 336.15905537 191.50501824 348.73170595 191.49836498 361.30445009 C191.49487128 368.36257195 191.49711474 375.42057758 191.51461601 382.47868156 C191.53086691 389.11481692 191.52616675 395.75071029 191.50731087 402.38685417 C191.50361571 404.8241368 191.50676027 407.26144068 191.51719666 409.69870377 C191.53034419 413.0225706 191.51891337 416.34547142 191.50120544 419.66929626 C191.51081045 420.63670948 191.52041546 421.6041227 191.53031152 422.60085148 C191.46676915 428.38673523 190.77917052 431.55415122 187 436 C182.32395278 440.10925362 177.98107169 440.14506787 171.99510479 440.13142776 C170.7516542 440.13450672 170.7516542 440.13450672 169.4830834 440.13764787 C166.68114636 440.14334142 163.87925812 440.14185772 161.07731628 440.14044189 C159.05785052 440.14302418 157.03838526 440.14603695 155.01892072 440.1494453 C149.45050873 440.15753456 143.88210962 440.15930594 138.31369245 440.16004276 C132.31561585 440.16188996 126.31754599 440.16943557 120.31947327 440.17617798 C106.51109238 440.19048449 92.70271328 440.19628946 78.89432681 440.20086992 C72.07298683 440.20320483 65.25164769 440.20680735 58.43030837 440.2105653 C35.08696626 440.22340116 11.74362461 440.23412066 -11.59972095 440.2375679 C-13.06539245 440.23778954 -14.53106394 440.23801132 -15.99673543 440.23823325 C-17.46597529 440.23845389 -18.93521515 440.23867438 -20.40445501 440.2388947 C-23.35207482 440.23933726 -26.29969464 440.23978437 -29.24731445 440.24023438 C-29.97815416 440.24034377 -30.70899387 440.24045316 -31.46198023 440.24056586 C-55.16589312 440.24419747 -78.86977544 440.26012123 -102.57367662 440.28342474 C-127.6262301 440.30800916 -152.67876611 440.32174008 -177.731332 440.32293582 C-180.48034426 440.32310728 -183.22935651 440.32332271 -185.97836876 440.32357025 C-186.65526846 440.32362602 -187.33216815 440.32368179 -188.02957996 440.32373925 C-198.93239721 440.32489086 -209.83518315 440.33592217 -220.73798982 440.35045731 C-231.69224532 440.36480875 -242.64646588 440.367814 -253.60072903 440.36001733 C-259.53758885 440.35610015 -265.47434308 440.3570924 -271.41119003 440.37107468 C-276.84243755 440.38374956 -282.27349943 440.38267277 -287.70474645 440.37048396 C-289.67312373 440.3685158 -291.64151387 440.37165659 -293.60987303 440.38032833 C-296.27933671 440.39134738 -298.94813672 440.38398504 -301.61758137 440.3719368 C-302.77184583 440.38332959 -302.77184583 440.38332959 -303.94942877 440.39495254 C-308.7099393 440.34836459 -311.95953158 439.52377625 -316 437 C-319.39743686 433.23527267 -321.12247184 430.84613343 -321.13422108 425.80385208 C-321.13867892 424.9187877 -321.14313676 424.03372332 -321.14772969 423.12183881 C-321.14754533 422.14345634 -321.14736097 421.16507388 -321.14717102 420.15704346 C-321.15084771 419.1223457 -321.1545244 418.08764795 -321.1583125 417.02159572 C-321.16938351 413.53164482 -321.17319895 410.04172367 -321.17700195 406.55175781 C-321.18326399 404.05876571 -321.18991056 401.56577455 -321.19691467 399.07278442 C-321.21616749 391.57482311 -321.22674662 384.0768697 -321.23564246 376.57889092 C-321.24002406 373.04914202 -321.24539122 369.51939462 -321.25063133 365.98964691 C-321.26764484 354.25781694 -321.28213926 342.52598791 -321.28938007 330.79414749 C-321.29129001 327.74883269 -321.29321034 324.7035179 -321.29516602 321.65820312 C-321.29564976 320.90129184 -321.2961335 320.14438055 -321.2966319 319.36453256 C-321.30493309 307.10166571 -321.33027093 294.83889638 -321.36274669 282.57607213 C-321.39580738 269.98989975 -321.41382795 257.40377695 -321.41702431 244.81756091 C-321.41919039 237.74931719 -321.42795302 230.68121566 -321.45348549 223.61301422 C-321.47744574 216.96463154 -321.48102438 210.31645899 -321.47072411 203.66802597 C-321.47022713 201.22589899 -321.47659488 198.78375967 -321.49028015 196.34167099 C-321.50790216 193.0111012 -321.50093993 189.68146061 -321.48774719 186.35089111 C-321.49871644 185.38143153 -321.50968568 184.41197196 -321.52098733 183.41313481 C-321.46552945 177.62559251 -320.7857445 174.44539355 -317 170 C-315.17578125 168.50390625 -315.17578125 168.50390625 -313.3125 167.5625 C-312.71050781 167.23378906 -312.10851562 166.90507812 -311.48828125 166.56640625 C-307.60601285 165.68268738 -303.90240845 166.41225314 -300 167 C-299.94054199 165.86292603 -299.94054199 165.86292603 -299.87988281 164.70288086 C-296.80032654 108.28830236 -279.11936238 55.66346643 -236 17 C-232.02849732 13.65155308 -227.9296822 10.47753352 -223.78222656 7.35107422 C-222.12934184 6.09805175 -220.49728202 4.81768698 -218.8671875 3.53515625 C-159.45655004 -41.49723111 -60.32392605 -47.38086146 0 0 Z " fill="#4793FE" transform="translate(321,52)"/>
<path d="M0 0 C6.27052685 2.19845483 12.35338121 4.84760394 18.43359375 7.51953125 C19.43438965 7.9592627 20.43518555 8.39899414 21.46630859 8.85205078 C23.42782373 9.71999187 25.38544833 10.59679849 27.33837891 11.48388672 C42.11784564 18.08615768 52.46265389 19.77979644 67.671875 14 C71.94145475 12.09862791 76.12002971 10.03363849 80.296875 7.9375 C96.86764412 -0.37827106 112.68129545 -4.75226144 130.95263672 1.29785156 C139.57413338 4.47273843 147.8941865 8.578465 156.17749023 12.54174805 C157.34610596 13.10031494 158.51472168 13.65888184 159.71875 14.234375 C160.76901367 14.74194336 161.81927734 15.24951172 162.90136719 15.77246094 C170.1891068 19.00146647 176.38638069 18.47276958 183.796875 15.625 C184.47065186 15.36678467 185.14442871 15.10856934 185.83862305 14.8425293 C192.74960639 12.11600649 199.42157665 8.86594177 206.04931641 5.51611328 C215.48339893 0.84390907 223.03036178 -1 233.671875 -1 C233.671875 27.38 233.671875 55.76 233.671875 85 C237.301875 85.33 240.931875 85.66 244.671875 86 C253.88048748 88.01375509 262.22528401 91.92016608 270.609375 96.125 C272.76271803 97.19334508 274.91761733 98.2585603 277.07421875 99.3203125 C278.00741943 99.78711426 278.94062012 100.25391602 279.90209961 100.73486328 C288.08101522 104.47070644 295.26440487 105.47765731 303.80078125 102.3203125 C309.70500519 100.08831853 315.28609884 97.32844736 320.921875 94.5 C337.60044655 86.3673514 352.76252423 82.03754288 371.16015625 87.32421875 C379.39677366 90.17955392 387.16468679 94.33650441 394.94921875 98.22265625 C404.24365606 102.88733774 404.24365606 102.88733774 414.421875 104.375 C415.32421875 104.38273437 416.2265625 104.39046875 417.15625 104.3984375 C428.15384283 103.15204365 437.87889438 99.00458577 447.859375 94.5 C472.1074106 83.64517551 472.1074106 83.64517551 480.671875 86 C485.67363547 88.50088023 487.5869622 90.87600433 489.671875 96 C489.95553858 98.69285572 490.09302166 101.15053025 490.07592773 103.83789062 C490.08622261 104.98054634 490.08622261 104.98054634 490.09672546 106.14628601 C490.11494029 108.64980004 490.1111642 111.1526843 490.10546875 113.65625 C490.11003268 115.40450239 490.11533888 117.15275298 490.12135315 118.90100098 C490.13027346 122.55923771 490.12787296 126.21725601 490.11791992 129.87548828 C490.10642361 134.55631703 490.12665707 139.23639212 490.15583706 143.91712189 C490.17420803 147.52545942 490.17390497 151.13361656 490.16819954 154.74198914 C490.16804648 156.46751463 490.17407839 158.19305247 490.18649101 159.91853333 C490.20141903 162.33353613 490.19071249 164.74714918 490.17358398 167.16210938 C490.18325195 167.86981979 490.19291992 168.57753021 490.20288086 169.3066864 C490.12876195 174.31341286 488.77227876 177.12231319 485.671875 181 C480.99582778 185.10925362 476.65294669 185.14506787 470.66697979 185.13142776 C469.83801273 185.1334804 469.00904567 185.13553303 468.1549584 185.13764787 C465.35302136 185.14334142 462.55113312 185.14185772 459.74919128 185.14044189 C457.72972552 185.14302418 455.71026026 185.14603695 453.69079572 185.1494453 C448.12238373 185.15753456 442.55398462 185.15930594 436.98556745 185.16004276 C430.98749085 185.16188996 424.98942099 185.16943557 418.99134827 185.17617798 C405.18296738 185.19048449 391.37458828 185.19628946 377.56620181 185.20086992 C370.74486183 185.20320483 363.92352269 185.20680735 357.10218337 185.2105653 C333.75884126 185.22340116 310.41549961 185.23412066 287.07215405 185.2375679 C285.60648255 185.23778954 284.14081106 185.23801132 282.67513957 185.23823325 C281.20589971 185.23845389 279.73665985 185.23867438 278.26741999 185.2388947 C275.31980018 185.23933726 272.37218036 185.23978437 269.42456055 185.24023438 C268.69372084 185.24034377 267.96288113 185.24045316 267.20989477 185.24056586 C243.50598188 185.24419747 219.80209956 185.26012123 196.09819838 185.28342474 C171.0456449 185.30800916 145.99310889 185.32174008 120.940543 185.32293582 C118.19153074 185.32310728 115.44251849 185.32332271 112.69350624 185.32357025 C112.01660654 185.32362602 111.33970685 185.32368179 110.64229504 185.32373925 C99.73947779 185.32489086 88.83669185 185.33592217 77.93388518 185.35045731 C66.97962968 185.36480875 56.02540912 185.367814 45.07114597 185.36001733 C39.13428615 185.35610015 33.19753192 185.3570924 27.26068497 185.37107468 C21.82943745 185.38374956 16.39837557 185.38267277 10.96712855 185.37048396 C8.99875127 185.3685158 7.03036113 185.37165659 5.06200197 185.38032833 C2.39253829 185.39134738 -0.27626172 185.38398504 -2.94570637 185.3719368 C-3.71521601 185.37953199 -4.48472565 185.38712718 -5.27755377 185.39495254 C-10.0380643 185.34836459 -13.28765658 184.52377625 -17.328125 182 C-21.58557277 177.2822876 -22.4531499 174.79169354 -22.47529602 168.49786377 C-22.47897271 167.82251862 -22.4826494 167.14717348 -22.4864375 166.45136333 C-22.49749269 164.17752889 -22.50132128 161.90374013 -22.50512695 159.62988281 C-22.51139025 158.00387425 -22.51803693 156.37786712 -22.52503967 154.75186157 C-22.54246247 150.32610344 -22.55300505 145.90035612 -22.5612452 141.47457218 C-22.56639295 138.71026738 -22.5724688 135.94596594 -22.57875633 133.18166351 C-22.59781251 124.53510159 -22.61204239 115.88854824 -22.6203683 107.24196935 C-22.63014146 97.25681987 -22.65646122 87.27189202 -22.69686919 77.28682065 C-22.72701927 69.57209879 -22.74183614 61.8574405 -22.74514931 54.14266086 C-22.74750119 49.53359831 -22.75647927 44.92477242 -22.78161049 40.31577301 C-22.80487672 35.97863282 -22.80913037 31.64188534 -22.79884911 27.30469894 C-22.79835327 25.71399759 -22.80468785 24.12327702 -22.81840515 22.53263474 C-22.8361074 20.35797655 -22.82902785 18.18473027 -22.81587219 16.0100708 C-22.81826055 14.79405811 -22.8206489 13.57804543 -22.82310963 12.32518387 C-22.04737144 7.11396725 -19.51852153 4.05197832 -15.640625 0.625 C-9.98566692 -2.14913038 -5.85779216 -1.76008778 0 0 Z " fill="#7DD5F4" transform="translate(22.328125,307)"/>
<path d="M0 0 C3.22539745 3.36297364 4.8265554 6.55178224 5.0625 11.234375 C4.64593808 16.4314809 2.96240403 20.07728787 -0.4765625 23.96875 C-4.46251005 26.95821066 -9.27635197 28.28044786 -13.91015625 29.97265625 C-23.23117667 33.79461689 -30.14211473 41.24721029 -34.2890625 50.3359375 C-37.38356579 57.74489249 -38.03383101 65.30183349 -37.1015625 73.28125 C-34.94388865 76.61583685 -31.18954647 77.8135796 -27.6640625 79.40625 C-26.53097656 79.92445313 -25.39789063 80.44265625 -24.23046875 80.9765625 C-12.34109606 85.93417858 -0.62968804 82.84651273 10.8984375 78.28125 C16.31191086 76.00341618 21.6836892 73.63490361 27.0300293 71.20385742 C45.31657642 62.90548055 45.31657642 62.90548055 53.8984375 65.28125 C58.37404758 67.60193671 60.71707352 69.765634 62.8984375 74.28125 C63.26758099 77.629529 63.26758099 77.629529 63.25920105 81.52619934 C63.26176432 82.24509313 63.2643276 82.96398692 63.26696855 83.70466536 C63.27190057 86.10778351 63.25542366 88.51027005 63.23901367 90.91333008 C63.23816727 92.63818344 63.2386428 94.36303789 63.24034119 96.08789062 C63.24120206 100.76729211 63.22356135 105.44646298 63.20261931 110.12581086 C63.18386791 115.0171862 63.18210328 119.9085668 63.17854309 124.79997253 C63.16921812 134.06113247 63.14459818 143.32218618 63.11449462 152.58329934 C63.08096472 163.12733514 63.06446814 173.671376 63.04940832 184.21545184 C63.01804905 205.90411051 62.96527972 227.59267357 62.8984375 249.28125 C62.44210937 248.66507812 61.98578125 248.04890625 61.515625 247.4140625 C58.49926134 243.4359597 55.85791082 240.4935657 50.8984375 239.28125 C42.19936309 239.28125 34.75529525 242.91854653 26.8984375 246.28125 C23.84058745 247.58553886 20.78141632 248.88640912 17.71899414 250.17993164 C15.63021896 251.06322071 13.54460352 251.95402945 11.46264648 252.85327148 C0.27549677 257.59640171 -11.72685824 261.16815001 -23.5390625 256.40625 C-26.53345434 255.03480282 -29.48403444 253.58639822 -32.43652344 252.12744141 C-51.38348353 242.78388337 -68.2345452 235.47417301 -89.59375 241.60546875 C-96.71646613 244.07408097 -103.45594106 247.57754119 -110.18261719 250.95214844 C-129.87994469 260.81633167 -129.87994469 260.81633167 -141.33203125 257.28515625 C-147.06639769 255.07770657 -152.58095411 252.56434826 -158.06640625 249.796875 C-158.94127686 249.36165527 -159.81614746 248.92643555 -160.7175293 248.47802734 C-162.39772892 247.63489075 -164.0684822 246.77246759 -165.72583008 245.88525391 C-174.88631174 241.26810137 -182.21154454 240.57388536 -193.1015625 238.28125 C-193.1015625 180.86125 -193.1015625 123.44125 -193.1015625 64.28125 C-180.68497713 65.41003049 -180.68497713 65.41003049 -175.3515625 67.15625 C-174.32546875 67.48367187 -173.299375 67.81109375 -172.2421875 68.1484375 C-168.78981203 69.39369731 -165.46070238 70.80424126 -162.1015625 72.28125 C-161.87082031 71.20488281 -161.64007813 70.12851563 -161.40234375 69.01953125 C-155.39620939 41.78670921 -141.91842534 15.66620504 -117.97265625 -0.00390625 C-106.42628634 -6.9003095 -95.17756151 -12.41153665 -82.1015625 -15.71875 C-81.14636719 -15.96367187 -80.19117188 -16.20859375 -79.20703125 -16.4609375 C-53.7799615 -21.77188483 -20.60517985 -16.85181995 0 0 Z " fill="#515CDD" transform="translate(449.1015625,153.71875)"/>
<path d="M0 0 C6.85867191 2.14382044 13.41963186 5.13644455 20 8 C22.6096796 9.11424522 25.22194393 10.22208783 27.8359375 11.32617188 C29.44146522 12.0061154 31.04451169 12.69195984 32.64453125 13.38476562 C44.00472964 18.25485067 55.33580321 20.52639572 67.15722656 15.94775391 C70.82101805 14.3979513 74.41552505 12.72439012 78 11 C79.68475349 10.20022091 81.36965336 9.40075012 83.0546875 8.6015625 C85.54138409 7.42196958 88.02383838 6.23729863 90.49316406 5.02172852 C102.80592362 -0.97934802 117.84256209 -2.6492979 131.25390625 0.95703125 C135.30854323 2.42414182 139.12574988 4.11815013 143 6 C144.99563263 6.93848118 146.99176454 7.87590108 148.98828125 8.8125 C153.94848839 11.15452254 158.88285948 13.54490953 163.80200195 15.97192383 C170.21673677 18.97230685 177.12926577 19.00752179 183.94140625 17.234375 C191.96963987 14.26173048 199.65768625 10.37985566 207.31420898 6.56689453 C217.28898401 1.67275133 224.46676156 0 236 0 C236 32.67 236 65.34 236 99 C204.8905721 99.06613255 173.781212 99.12152649 142.67173576 99.15319599 C138.99925601 99.15694812 135.3267764 99.16083109 131.65429688 99.16479492 C130.92317012 99.16558185 130.19204336 99.16636878 129.43876125 99.16717956 C117.59934824 99.18023466 105.75997891 99.20388907 93.92059182 99.23145839 C81.77293226 99.2595097 69.6252956 99.27617568 57.47760499 99.28226548 C49.98138809 99.2863825 42.48529468 99.29938731 34.98911579 99.3237494 C29.24172467 99.34147694 23.49441274 99.34336631 17.74699974 99.33932304 C15.38872835 99.34014954 13.03045236 99.34613228 10.67220879 99.35761642 C7.45552444 99.37251488 4.23937087 99.36896293 1.02267456 99.36076355 C0.08686928 99.36950207 -0.84893601 99.3782406 -1.81309903 99.38724393 C-6.96353545 99.3516938 -10.55230203 98.89247741 -15 96 C-19.42793108 91.09337367 -20.15302393 88.05538905 -20.17700195 81.61621094 C-20.18357315 80.85502457 -20.19014435 80.0938382 -20.19691467 79.30958557 C-20.216663 76.78451442 -20.22831456 74.25950282 -20.23828125 71.734375 C-20.24235678 70.87212563 -20.2464323 70.00987625 -20.25063133 69.12149811 C-20.27150012 64.55642434 -20.28579747 59.9913807 -20.29516602 55.42626953 C-20.30622314 50.71400852 -20.34061246 46.00222068 -20.38033772 41.2901268 C-20.40650417 37.66466402 -20.41485794 34.03931386 -20.41844749 30.41376495 C-20.42331458 28.67705342 -20.43493208 26.94034697 -20.45348549 25.20372772 C-20.47787482 22.76922846 -20.47691257 20.33595162 -20.4699707 17.90136719 C-20.48278076 17.18737259 -20.49559082 16.47337799 -20.50878906 15.73774719 C-20.44430765 9.51531389 -17.88475913 6.1703287 -13.9375 1.625 C-9.13405579 -1.03222446 -5.36853445 -0.97501622 0 0 Z " fill="#BBFAFE" transform="translate(20,393)"/>
<path d="M0 0 C4.06264293 2.58893912 7.26470012 5.44831295 9 10 C9.18098862 12.84745332 9.25265897 15.59442425 9.22705078 18.44042969 C9.22734283 19.28957443 9.22763489 20.13871918 9.22793579 21.01359558 C9.22654398 23.81645983 9.21098976 26.61905727 9.1953125 29.421875 C9.19158184 31.36671809 9.18873512 33.31156305 9.18673706 35.25640869 C9.17910477 40.37250975 9.1594597 45.48849707 9.1373291 50.60455322 C9.116862 55.82619691 9.10773349 61.047859 9.09765625 66.26953125 C9.07621348 76.51307078 9.04208235 86.75652593 9 97 C8.54367187 96.38382812 8.08734375 95.76765625 7.6171875 95.1328125 C4.60082384 91.1547097 1.95947332 88.2123157 -3 87 C-11.69907441 87 -19.14314225 90.63729653 -27 94 C-30.05785005 95.30428886 -33.11702118 96.60515912 -36.17944336 97.89868164 C-38.26821854 98.78197071 -40.35383398 99.67277945 -42.43579102 100.57202148 C-53.62294073 105.31515171 -65.62529574 108.88690001 -77.4375 104.125 C-80.43189184 102.75355282 -83.38247194 101.30514822 -86.33496094 99.84619141 C-105.28192103 90.50263337 -122.1329827 83.19292301 -143.4921875 89.32421875 C-150.61490363 91.79283097 -157.35437856 95.29629119 -164.08105469 98.67089844 C-183.77838219 108.53508167 -183.77838219 108.53508167 -195.23046875 105.00390625 C-200.96483519 102.79645657 -206.47939161 100.28309826 -211.96484375 97.515625 C-212.83971436 97.08040527 -213.71458496 96.64518555 -214.6159668 96.19677734 C-216.29616642 95.35364075 -217.9669197 94.49121759 -219.62426758 93.60400391 C-228.78474924 88.98685137 -236.10998204 88.29263536 -247 86 C-247 57.62 -247 29.24 -247 0 C-232.48615937 0 -222.2247311 4.5902661 -209.4375 10.6875 C-207.55259919 11.57940814 -205.666813 12.46939557 -203.7802887 13.35786438 C-202.09204008 14.15397433 -200.40617466 14.95513243 -198.72045898 15.7565918 C-191.75398536 18.94067599 -184.89642236 19.15351713 -177.54296875 16.9765625 C-169.46369538 13.80787674 -161.63959374 10.02618319 -153.87280273 6.16040039 C-139.7627918 -0.74495114 -124.0121563 -2.90330818 -108.75 1.75 C-98.37844711 5.72749631 -88.43662934 10.89928883 -78.51098633 15.86425781 C-67.54789834 20.82296324 -55.89202285 18.02495259 -45.1484375 14.05859375 C-37.85974311 11.21475577 -30.71054038 8.02371618 -23.59057617 4.78393555 C-7.46484228 -2.5321916 -7.46484228 -2.5321916 0 0 Z " fill="#4793FE" transform="translate(503,306)"/>
</svg>
